<?xml version="1.0" standalone="no"?>
<!DOCTYPE svg PUBLIC "-//W3C//DTD SVG 20010904//EN"
 "http://www.w3.org/TR/2001/REC-SVG-20010904/DTD/svg10.dtd">
<svg version="1.0" xmlns="http://www.w3.org/2000/svg"
 width="320.000000pt" height="320.000000pt" viewBox="0 0 320.000000 320.000000"
 preserveAspectRatio="xMidYMid meet">

<g transform="translate(0.000000,320.000000) scale(0.100000,-0.100000)"
fill="#000000" stroke="none">
<path d="M232 1697 c-50 -51 -92 -97 -92 -103 0 -15 54 -64 71 -64 8 0 37 23
64 50 27 28 54 50 60 50 6 0 35 -25 65 -55 l54 -55 28 27 c16 15 40 27 56 28
17 0 28 6 30 18 3 13 -3 17 -25 17 -22 0 -47 19 -118 90 -49 50 -92 90 -95 90
-3 0 -47 -42 -98 -93z"/>
<path d="M537 1762 c-15 -15 -27 -35 -27 -43 0 -8 23 -37 50 -64 28 -27 50
-54 50 -60 0 -6 -25 -35 -55 -65 l-55 -54 32 -33 c18 -18 37 -33 43 -33 6 0
53 43 105 95 l95 95 -95 95 c-52 52 -99 95 -105 95 -6 0 -23 -13 -38 -28z"/>
<path d="M1320 1764 c-74 -32 -113 -90 -113 -169 0 -85 52 -153 134 -175 144
-39 269 123 200 258 -24 47 -50 70 -98 88 -49 17 -80 17 -123 -2z m128 -110
c50 -57 12 -144 -64 -144 -53 0 -84 31 -84 85 0 85 92 122 148 59z"/>
<path d="M2865 1762 c-126 -59 -149 -218 -45 -306 38 -32 96 -48 141 -40 36 7
99 41 99 53 0 4 -13 20 -29 35 -24 23 -32 26 -49 17 -37 -20 -86 -13 -112 14
-66 71 16 184 101 139 30 -15 32 -15 60 12 16 15 29 31 29 35 0 15 -69 49
-111 54 -31 4 -56 0 -84 -13z"/>
<path d="M868 1764 c-5 -4 -8 -83 -8 -176 l0 -168 90 0 c104 0 144 13 183 59
53 64 59 146 14 211 -42 63 -68 75 -175 78 -53 2 -100 0 -104 -4z m183 -97
c44 -34 49 -83 13 -126 -22 -26 -33 -31 -70 -31 l-44 0 0 85 0 85 43 0 c23 0
49 -6 58 -13z"/>
<path d="M1590 1595 l0 -175 45 0 45 0 1 98 0 97 38 -95 c36 -88 41 -95 69
-98 29 -3 31 -1 68 95 l39 97 3 -97 3 -97 44 0 45 0 0 175 0 176 -62 -3 -62
-3 -34 -90 c-18 -49 -37 -93 -41 -97 -4 -4 -23 36 -43 90 l-35 97 -62 3 -61 3
0 -176z"/>
<path d="M2032 1598 l3 -173 123 -3 122 -3 0 46 0 45 -80 0 -80 0 0 30 0 30
65 0 65 0 0 35 0 35 -65 0 c-58 0 -65 2 -65 20 0 18 7 20 80 20 l80 0 0 45 0
45 -125 0 -125 0 2 -172z"/>
<path d="M2310 1737 c0 -43 15 -57 62 -57 l38 0 0 -130 0 -130 50 0 50 0 0
130 0 130 45 0 45 0 0 45 0 45 -145 0 -145 0 0 -33z"/>
<path d="M2630 1595 l0 -175 50 0 50 0 0 175 0 175 -50 0 -50 0 0 -175z"/>
</g>
</svg>
